# xmcd
# 
# Track frame offsets:
#     150
#     12595
#     28258
#     37332
#     47863
#     53938
#     64482
#     75018
#     79624
#     94722
#     108125
#     113200
#     115461
#     123084
#     131586
#     138974
#     156649
#     169014
#     180426
#     195826
#     203450
#     212225
#     223897
#     236918
#     251461
#     266755
#     280597
#     295328
#     304209
# 
# Disc length: 4209
# 
# Revision: 5
# Processed by: cddbd v1.5.2PL0 Copyright (c) Steve Scherf et al.
# Submitted via: fre:ac v1.0.31
# 
DISCID=aa106f1d
DTITLE=Johnny Cash - Bootleg Vol. 3  Live Around The World Disc 1
DYEAR=2011
DGENRE=Country
TTITLE0=So Doggone Lonesome
TTITLE1=I Walk The Line
TTITLE2=Get Rhythm
TTITLE3=Country Boy
TTITLE4=I Still Miss Someone
TTITLE5=Cotton Fields
TTITLE6=I Walk The Line #2
TTITLE7=Perkins Boogie
TTITLE8=Impersonations
TTITLE9=Rock Island Line
TTITLE10=The Rebel -- Johnny Yuma
TTITLE11=Introduction-Pete Seeger
TTITLE12=Big River
TTITLE13=Folsom Prison Blues
TTITLE14=I Still Miss Someone #2
TTITLE15=Rock Island Line #2
TTITLE16=Don't Think Twice, It's All Right
TTITLE17=I Walk The Line #3
TTITLE18=Ballad Of Ira Hayes
TTITLE19=Keep On The Sunny Side
TTITLE20=Big River #2
TTITLE21=Wreck Of The Old '97
TTITLE22=Tennessee Flat Top Box
TTITLE23=Remember The Alamo
TTITLE24=Cocaine Blues
TTITLE25=Jackson [w/June Carter Cash]
TTITLE26=Long-Legged Guitar Pickin' Man [w/June Carter Cash]
TTITLE27=Ring Of Fire
TTITLE28=Daddy Sang Bass
EXTD=
EXTT0=
EXTT1=
EXTT2=
EXTT3=
EXTT4=
EXTT5=
EXTT6=
EXTT7=
EXTT8=
EXTT9=
EXTT10=
EXTT11=
EXTT12=
EXTT13=
EXTT14=
EXTT15=
EXTT16=
EXTT17=
EXTT18=
EXTT19=
EXTT20=
EXTT21=
EXTT22=
EXTT23=
EXTT24=
EXTT25=
EXTT26=
EXTT27=
EXTT28=
PLAYORDER=
